<svg xmlns="http://www.w3.org/2000/svg" viewBox="0 0 480 320" role="img" aria-labelledby="title desc">
  <title id="title">Armored dinosaur silhouette</title>
  <desc id="desc">Stylized armored dinosaur silhouette with plated back.</desc>
  <defs>
    <linearGradient id="sky" x1="0" x2="0" y1="0" y2="1">
      <stop offset="0%" stop-color="#dce6c8" />
      <stop offset="100%" stop-color="#b2c78e" />
    </linearGradient>
    <linearGradient id="ground" x1="0" x2="1" y1="0" y2="0">
      <stop offset="0%" stop-color="#6b5234" />
      <stop offset="100%" stop-color="#47311f" />
    </linearGradient>
  </defs>
  <rect width="480" height="320" fill="url(#sky)" rx="28" />
  <circle cx="386" cy="76" r="28" fill="#edf0cf" opacity="0.7" />
  <path d="M0 250 C72 232 146 218 219 224 C300 231 383 241 480 221 V320 H0 Z" fill="url(#ground)" />
  <path d="M96 224 C130 206 159 194 188 186 C231 175 286 173 326 184 C344 188 360 198 373 212 L404 220 L415 231 L390 236 L364 230 C336 240 311 244 278 245 H158 C129 244 107 237 96 224 Z" fill="#24170f"/>
  <path d="M168 237 L163 292 H178 L184 239 Z" fill="#24170f"/>
  <path d="M226 238 L221 292 H236 L241 239 Z" fill="#24170f"/>
  <path d="M302 237 L296 292 H311 L318 238 Z" fill="#24170f"/>
  <path d="M352 232 L347 292 H361 L367 233 Z" fill="#24170f"/>
  <path d="M157 185 L174 158 L189 184 Z M197 179 L214 151 L229 179 Z M236 176 L254 147 L268 177 Z M278 176 L296 151 L310 179 Z M319 181 L337 157 L351 186 Z" fill="#24170f"/>
  <path d="M408 221 L451 205 L464 215 L425 228 Z" fill="#24170f"/>
</svg>
