<svg xmlns="http://www.w3.org/2000/svg" viewBox="0 0 480 320" role="img" aria-labelledby="title desc">
  <title id="title">Crocodyliform silhouette</title>
  <desc id="desc">Stylized crocodyliform silhouette stalking along a riverbank.</desc>
  <defs>
    <linearGradient id="sky" x1="0" x2="0" y1="0" y2="1">
      <stop offset="0%" stop-color="#dce5cf" />
      <stop offset="100%" stop-color="#a5ba8c" />
    </linearGradient>
    <linearGradient id="ground" x1="0" x2="1" y1="0" y2="0">
      <stop offset="0%" stop-color="#6a5238" />
      <stop offset="100%" stop-color="#473120" />
    </linearGradient>
  </defs>
  <rect width="480" height="320" fill="url(#sky)" rx="28" />
  <circle cx="92" cy="78" r="28" fill="#eef4df" opacity="0.72" />
  <path d="M0 246 C94 222 178 216 257 223 C330 229 404 233 480 220 V320 H0 Z" fill="url(#ground)" />
  <path d="M62 229 C99 214 130 204 157 200 C184 196 210 198 235 205 L302 206 L364 198 L416 185 L430 191 L397 206 L431 211 L427 220 L390 223 L343 224 L311 225 L322 236 L313 245 L281 234 C260 240 236 244 212 245 H133 C100 245 76 240 62 229 Z" fill="#20150f"/>
  <path d="M235 205 C244 188 263 177 292 173 L305 179 L307 188 L298 194 L311 200 L304 208 L284 208 L266 211 Z" fill="#20150f"/>
  <path d="M143 241 L132 291 H146 L158 244 Z" fill="#20150f"/>
  <path d="M210 241 L201 291 H215 L226 245 Z" fill="#20150f"/>
  <path d="M326 225 L350 248 L365 248 L342 222 Z" fill="#20150f"/>
</svg>
