<svg xmlns="http://www.w3.org/2000/svg" viewBox="0 0 480 320" role="img" aria-labelledby="title desc">
  <title id="title">Ornithischian silhouette</title>
  <desc id="desc">Stylized beaked ornithischian dinosaur silhouette with a strong tail and hind legs.</desc>
  <defs>
    <linearGradient id="sky" x1="0" x2="0" y1="0" y2="1">
      <stop offset="0%" stop-color="#f6e7b8" />
      <stop offset="100%" stop-color="#e4bf82" />
    </linearGradient>
    <linearGradient id="ground" x1="0" x2="1" y1="0" y2="0">
      <stop offset="0%" stop-color="#86573a" />
      <stop offset="100%" stop-color="#5d3824" />
    </linearGradient>
  </defs>
  <rect width="480" height="320" fill="url(#sky)" rx="28" />
  <circle cx="92" cy="78" r="26" fill="#fff2c9" opacity="0.72" />
  <path d="M0 248 C90 233 182 219 264 226 C349 234 420 238 480 225 V320 H0 Z" fill="url(#ground)" />
  <path d="M86 228 C120 208 158 194 198 188 C237 182 269 186 295 198 L330 197 L353 182 L383 178 L393 186 L374 196 L366 205 L389 216 L381 226 L342 217 L312 228 L276 235 H186 C146 235 111 233 86 228 Z" fill="#28190f"/>
  <path d="M299 198 C310 171 329 155 355 151 L369 156 L371 165 L360 173 L374 178 L369 186 L349 190 L334 198 Z" fill="#28190f"/>
  <path d="M193 231 L180 292 H196 L209 244 L219 292 H235 L227 232 Z" fill="#28190f"/>
  <path d="M251 230 L266 292 H281 L270 233 L291 292 H307 L289 229 Z" fill="#28190f"/>
  <path d="M138 215 L118 200 L127 191 L150 205 Z" fill="#28190f"/>
  <path d="M331 205 L342 217 L363 221 L358 230 L337 226 L325 213 Z" fill="#28190f"/>
</svg>
