<svg xmlns="http://www.w3.org/2000/svg" viewBox="0 0 480 320" role="img" aria-labelledby="title desc">
  <title id="title">Sauropod silhouette</title>
  <desc id="desc">Stylized sauropod dinosaur silhouette on a warm prehistoric landscape.</desc>
  <defs>
    <linearGradient id="sky" x1="0" x2="0" y1="0" y2="1">
      <stop offset="0%" stop-color="#d7eddc" />
      <stop offset="100%" stop-color="#9fc4ae" />
    </linearGradient>
    <linearGradient id="ground" x1="0" x2="1" y1="0" y2="0">
      <stop offset="0%" stop-color="#8f6943" />
      <stop offset="100%" stop-color="#704d31" />
    </linearGradient>
  </defs>
  <rect width="480" height="320" fill="url(#sky)" rx="28" />
  <circle cx="386" cy="76" r="28" fill="#edf8f0" opacity="0.7" />
  <path d="M0 248 C90 220 177 214 256 228 C334 242 403 242 480 214 V320 H0 Z" fill="url(#ground)" />
  <path d="M86 210 C121 205 148 180 167 155 C184 133 202 112 222 99 C234 91 247 93 254 102 C259 109 257 119 246 128 C224 146 214 163 224 176 C248 208 244 231 216 236 C185 242 145 244 112 237 C89 232 74 222 69 212 Z" fill="#2e2018"/>
  <ellipse cx="262" cy="191" rx="120" ry="56" fill="#2e2018"/>
  <path d="M362 191 C401 185 427 174 452 158 L464 166 C440 186 418 200 386 209 Z" fill="#2e2018"/>
  <rect x="196" y="214" width="18" height="78" rx="8" fill="#2e2018"/>
  <rect x="247" y="218" width="18" height="74" rx="8" fill="#2e2018"/>
  <rect x="302" y="214" width="18" height="78" rx="8" fill="#2e2018"/>
  <rect x="343" y="211" width="18" height="81" rx="8" fill="#2e2018"/>
</svg>
